<svg xmlns="http://www.w3.org/2000/svg" viewBox="0 0 78 76" width="78" height="76">
	<defs>
		<linearGradient id="grd1" gradientUnits="userSpaceOnUse"  x1="17.169" y1="37.948" x2="48.908" y2="37.948">
			<stop offset="0" stop-color="#39face"  />
			<stop offset="0" stop-color="#01c497"  />
			<stop offset="0.385" stop-color="#16d8ab"  />
			<stop offset="1" stop-color="#3fffd3"  />
		</linearGradient>
	</defs>
	<style>
		tspan { white-space:pre }
		.shp0 { fill: url(#grd1) } 
		.shp1 { fill: #ffffff } 
		.shp2 { fill: #fefefe } 
		.shp3 { fill: #018061 } 
		.shp4 { fill: #028062 } 
		.shp5 { fill: #048162 } 
		.shp6 { fill: #038162 } 
		.shp7 { fill: #f7ede0 } 
	</style>
	<g id="Layer">
		<g id="Layer">
			<path id="Layer" class="shp0" d="M23.66 7.01L17.17 10.49L22.13 18.46L22.13 41.36C22.13 44.46 24.48 48.24 27.37 49.79L48.73 61.24L53.69 69.21L60.18 65.73C61.13 65.22 61.71 64.13 61.71 62.58L61.71 31.38C61.71 28.28 59.36 24.5 56.47 22.95L27.37 7.35C25.92 6.57 24.61 6.5 23.66 7.01Z" />
			<path id="Layer" class="shp1" d="M20.87 53.27L49.97 68.87C52.86 70.42 55.21 69.16 55.21 66.06L55.21 34.86C55.21 31.76 52.86 27.98 49.97 26.43L20.87 10.83C17.98 9.28 15.63 10.54 15.63 13.64L15.63 44.84C15.63 47.94 17.98 51.72 20.87 53.27Z" />
		</g>
		<g id="Layer">
			<g id="Layer">
				<g id="Layer">
					<g id="Layer">
						<g id="Layer">
							<g id="Layer">
								<g id="Layer">
									<path id="Layer" fill-rule="evenodd" class="shp2" d="M37.67 46.31C37.7 46.33 37.73 46.34 37.75 46.36C37.72 46.34 37.69 46.33 37.67 46.31ZM35.92 44.75C35.96 44.75 35.99 44.75 36.03 44.76C35.99 44.75 35.96 44.75 35.92 44.75ZM35.8 44.77C35.84 44.75 35.88 44.75 35.92 44.75C35.88 44.75 35.84 44.75 35.8 44.77ZM36.47 45.15C36.35 44.99 36.24 44.87 36.13 44.81C36.24 44.87 36.35 44.98 36.47 45.15ZM43.55 48.12C43.44 48.06 43.34 47.99 43.23 47.92C43.34 47.99 43.45 48.06 43.55 48.12ZM35.07 56.39C27.08 51.73 20.62 40.54 20.67 31.39C20.63 40.54 27.08 51.73 35.07 56.39ZM36.43 43.83C36.49 43.88 36.55 43.93 36.61 43.99C36.55 43.94 36.49 43.89 36.43 43.83ZM39.36 45.03C39.26 45.04 39.17 45.05 39.07 45.05C39.17 45.05 39.26 45.04 39.36 45.03C39.39 45.03 39.41 45.01 39.44 45.01C39.42 45.01 39.39 45.03 39.36 45.03ZM37.92 44.81C38.32 44.97 38.7 45.05 39.07 45.05C38.69 45.05 38.31 44.97 37.92 44.81ZM29.17 39.25C29.25 39.25 29.34 39.25 29.42 39.24C29.34 39.25 29.25 39.25 29.17 39.25ZM28.43 39.16C28.68 39.22 28.93 39.25 29.17 39.25C28.92 39.25 28.68 39.22 28.43 39.16ZM39.53 45.05C39.52 45.04 39.51 45.03 39.5 45.02C39.51 45.02 39.52 45.03 39.53 45.05ZM39.57 45.16C39.57 45.12 39.56 45.09 39.53 45.05C39.57 45.09 39.57 45.12 39.57 45.16ZM29.57 39.27C29.63 39.3 29.68 39.36 29.75 39.45C29.68 39.37 29.63 39.31 29.57 39.27ZM29.75 39.45C30.08 39.9 30.41 40.31 30.81 40.64C30.41 40.31 30.07 39.9 29.75 39.45ZM41.22 46.11C41.21 46.55 41.15 46.95 41.06 47.33C41.14 46.95 41.21 46.54 41.22 46.11ZM41.06 47.33C40.88 48.17 40.39 48.52 39.64 48.46C39.03 48.42 38.42 48.23 37.82 47.91C38.42 48.23 39.02 48.41 39.64 48.46C40.39 48.51 40.88 48.17 41.06 47.33ZM41.28 46C41.3 46.01 41.33 46.05 41.37 46.1C41.33 46.05 41.3 46.02 41.28 46ZM41.98 46.84C42.02 46.89 42.07 46.93 42.11 46.98C42.06 46.93 42.02 46.89 41.98 46.84ZM41.98 46.84C41.94 46.8 41.9 46.76 41.86 46.71C41.9 46.75 41.94 46.8 41.98 46.84ZM23.4 35.11C23.39 35.16 23.44 35.23 23.52 35.34C23.43 35.24 23.39 35.16 23.4 35.11ZM23.52 35.34C24.19 36.27 24.93 37.04 25.73 37.68C24.93 37.05 24.19 36.27 23.52 35.34ZM43.66 46.75C43.61 46.73 43.57 46.7 43.52 46.67C43.57 46.7 43.62 46.73 43.66 46.75ZM27.06 37.19C26.77 37.03 26.49 36.83 26.21 36.61C26.49 36.82 26.77 37.03 27.06 37.19ZM45 47.16C45.03 47.16 45.07 47.16 45.1 47.16C45.07 47.16 45.03 47.16 45 47.16ZM44.48 47.1C44.66 47.14 44.83 47.16 45 47.16C44.83 47.16 44.66 47.14 44.48 47.1ZM24.61 34.91C24.56 34.85 24.51 34.81 24.46 34.78C24.51 34.8 24.56 34.85 24.61 34.91ZM31.16 39.42C31.53 39.73 31.9 40 32.28 40.22C31.9 40.01 31.53 39.74 31.16 39.42C30.8 39.12 30.57 38.68 30.56 38.3C30.57 38.68 30.8 39.11 31.16 39.42ZM31.66 37.91C31.68 37.92 31.71 37.94 31.73 37.95C31.71 37.94 31.68 37.93 31.66 37.91ZM35.31 56.51C43.18 60.94 49.59 57.22 49.63 48.13C49.59 57.23 43.18 60.95 35.31 56.51ZM33.89 41.85C33.88 41.84 33.87 41.84 33.86 41.83C33.87 41.83 33.88 41.84 33.89 41.85ZM38.76 43.6C38.85 43.6 38.94 43.58 39.03 43.56C38.94 43.58 38.85 43.6 38.76 43.6ZM38.1 43.42C38.32 43.53 38.55 43.59 38.76 43.6C38.55 43.6 38.33 43.53 38.1 43.42ZM37.95 43.35C37.73 43.23 37.52 43.07 37.3 42.87C37.52 43.07 37.74 43.23 37.95 43.35ZM42.91 43.2C42.64 43.05 42.37 42.89 42.1 42.74C42.37 42.89 42.64 43.04 42.91 43.2ZM45.48 44.7C45.46 44.69 45.43 44.67 45.41 44.65C45.43 44.66 45.46 44.68 45.48 44.7ZM42.91 43.2C43.18 43.36 43.46 43.52 43.73 43.68C43.45 43.52 43.18 43.36 42.91 43.2ZM42.08 42.73C41.93 42.65 41.89 42.57 41.89 42.45C41.89 42.56 41.93 42.65 42.08 42.73ZM33.52 37.71C33.43 37.66 33.32 37.59 33.18 37.52C33.11 37.49 33.04 37.45 32.98 37.41C33.05 37.45 33.12 37.49 33.18 37.52C33.32 37.59 33.44 37.66 33.52 37.71ZM26.07 33.15C26.68 33.68 27.3 34.06 27.93 34.44C27.3 34.06 26.68 33.69 26.07 33.15ZM27.93 34.44C28.52 34.79 29.07 35.27 29.56 35.93C29.61 36 29.66 36.04 29.7 36.07C29.66 36.05 29.61 36 29.56 35.93C29.07 35.28 28.52 34.8 27.93 34.44ZM28.82 33.81C28.89 33.9 28.96 33.95 29.02 33.99C28.96 33.96 28.89 33.9 28.82 33.81ZM28.68 33.65C28.59 33.54 28.5 33.45 28.41 33.35C28.5 33.44 28.59 33.54 28.68 33.65ZM38.72 39.21C38.66 39.15 38.6 39.1 38.54 39.04C38.6 39.09 38.66 39.15 38.72 39.21ZM31.02 34.81C31.17 34.81 31.32 34.84 31.48 34.89C31.32 34.84 31.17 34.81 31.02 34.81ZM30.96 34.81C30.98 34.81 31 34.81 31.02 34.81C31 34.81 30.98 34.81 30.96 34.81ZM37.92 38.58C37.95 38.59 37.97 38.61 38 38.63C37.97 38.61 37.95 38.6 37.92 38.58ZM29.9 34.01C29.85 33.93 29.79 33.86 29.73 33.82C29.79 33.85 29.85 33.92 29.9 34.01ZM32.34 35.32C32.26 35.28 32.19 35.23 32.12 35.19C32.19 35.23 32.27 35.27 32.34 35.32ZM26.97 32.16C27.13 32.25 27.29 32.35 27.44 32.47C27.28 32.35 27.13 32.25 26.97 32.16ZM44.84 42.74C45.31 43.34 45.53 43.96 45.57 44.6L43.3 41.54C43.44 41.6 43.59 41.67 43.73 41.75C44.12 41.97 44.49 42.3 44.84 42.74ZM45.76 42.39C45.8 42.44 45.83 42.5 45.86 42.55C45.83 42.5 45.79 42.45 45.76 42.39ZM41.15 39.01C41.14 39.01 41.14 39 41.13 39C41.14 39 41.14 39 41.15 39.01ZM38.15 37.24C38.31 37.37 38.47 37.51 38.62 37.66C38.47 37.51 38.31 37.37 38.15 37.24ZM38.62 37.66C38.7 37.73 38.77 37.81 38.83 37.88C38.76 37.8 38.69 37.73 38.62 37.66ZM37.58 36.85C37.61 36.87 37.64 36.88 37.66 36.9C37.63 36.88 37.6 36.87 37.58 36.85ZM42.14 39.8C42.5 39.82 42.91 39.95 43.33 40.17C42.92 39.96 42.51 39.83 42.14 39.8ZM32.37 33.84C32.45 33.89 32.53 33.93 32.6 33.98C32.53 33.94 32.45 33.89 32.37 33.84ZM43.86 40.49C43.75 40.42 43.65 40.35 43.54 40.29C43.65 40.35 43.76 40.42 43.86 40.49ZM36.44 46.88C36.85 47.28 37.27 47.6 37.7 47.84C37.27 47.6 36.85 47.28 36.44 46.88ZM37.04 44.32C37.17 44.41 37.29 44.49 37.42 44.56C37.29 44.49 37.17 44.41 37.04 44.32ZM45.58 47.11C45.59 47.12 45.61 47.13 45.62 47.14C45.61 47.13 45.59 47.12 45.58 47.11ZM24.36 34.74C24.31 34.74 24.27 34.75 24.22 34.77C24.27 34.75 24.31 34.74 24.36 34.74ZM30.41 34.79C30.42 34.8 30.43 34.81 30.45 34.81C30.43 34.81 30.42 34.8 30.41 34.79ZM29.23 34C29.19 34.02 29.15 34.03 29.11 34.03C29.15 34.03 29.19 34.02 29.23 34ZM36.97 38.27C36.83 38.27 36.69 38.29 36.57 38.34C36.69 38.29 36.83 38.27 36.97 38.27ZM26.6 31.97C26.51 31.93 26.42 31.89 26.34 31.86C26.42 31.89 26.51 31.93 26.6 31.97ZM29.58 32.92C29.62 32.97 29.66 33.01 29.71 33.03C29.66 33.01 29.62 32.97 29.58 32.92ZM36.51 36.42C36.23 36.36 35.97 36.35 35.74 36.39C35.97 36.35 36.23 36.36 36.51 36.42ZM35.21 23.15C27.29 18.56 20.82 22.16 20.67 31.18C20.82 22.16 27.29 18.56 35.21 23.15ZM26.95 30.7C27.18 30.83 27.41 30.98 27.64 31.15C27.41 30.98 27.18 30.83 26.95 30.7Z" />
									<path id="Layer" fill-rule="evenodd" class="shp3" d="M49.63 48.15C49.59 57.24 43.18 60.96 35.31 56.53C35.24 56.49 35.18 56.46 35.12 56.42C35.1 56.41 35.09 56.4 35.07 56.39C27.08 51.73 20.62 40.54 20.67 31.39C20.67 31.32 20.67 31.25 20.67 31.18C20.82 22.16 27.29 18.56 35.21 23.15C43.2 27.78 49.66 38.97 49.63 48.15ZM26.31 30.32C25.72 30.06 25.16 29.91 24.65 29.99C24.1 30.08 23.84 30.58 23.83 31.18C23.82 31.54 23.9 31.93 24.05 32.3C24.38 33.11 24.89 33.74 25.52 34.23C26.08 34.67 26.65 35.04 27.22 35.43C27.53 35.64 27.85 35.83 28.15 36.13C28.42 36.4 28.56 36.71 28.56 36.97C28.56 37.12 28.51 37.26 28.4 37.35C28.24 37.48 28.04 37.49 27.81 37.45C27.54 37.4 27.27 37.28 27 37.12C26.71 36.96 26.43 36.76 26.15 36.54C26.11 36.51 26.07 36.48 26.03 36.45C25.52 36.06 25.07 35.53 24.65 34.96C24.61 34.92 24.58 34.88 24.55 34.84C24.5 34.78 24.45 34.74 24.4 34.71C24.37 34.69 24.33 34.68 24.3 34.68C24.26 34.67 24.21 34.68 24.16 34.71C23.94 34.82 23.69 34.9 23.44 34.96C23.38 34.97 23.34 35 23.34 35.04C23.34 35.09 23.38 35.16 23.46 35.27C24.13 36.2 24.87 36.97 25.67 37.61C26.1 37.95 26.52 38.25 26.94 38.49C27 38.52 27.05 38.55 27.1 38.58C27.31 38.7 27.51 38.8 27.72 38.88C27.94 38.97 28.16 39.04 28.38 39.09C28.71 39.17 29.04 39.2 29.37 39.17C29.4 39.17 29.43 39.17 29.45 39.18C29.48 39.19 29.5 39.2 29.52 39.21C29.58 39.24 29.64 39.3 29.7 39.39C30.03 39.84 30.36 40.25 30.76 40.58C31.07 40.84 31.37 41.04 31.68 41.22C31.99 41.4 32.3 41.55 32.61 41.69C32.65 41.71 32.7 41.73 32.74 41.75C33.12 41.93 33.44 41.93 33.72 41.77C33.73 41.76 33.75 41.75 33.76 41.75C33.78 41.75 33.79 41.75 33.82 41.77C33.83 41.77 33.84 41.78 33.85 41.79C33.85 41.91 33.85 42.04 33.85 42.16C33.85 42.2 33.85 42.24 33.85 42.28C33.85 42.29 33.85 42.3 33.85 42.31C33.85 42.44 33.91 42.5 34.02 42.57C34.12 42.63 34.22 42.69 34.33 42.75C34.54 42.87 34.75 43 34.96 43.12C35.44 43.4 35.44 43.4 35.47 42.87L35.5 42.74L35.64 42.89C35.87 43.22 36.11 43.53 36.39 43.78C36.45 43.84 36.51 43.89 36.57 43.94C36.72 44.06 36.86 44.17 37 44.27C37.13 44.36 37.25 44.44 37.38 44.51C37.55 44.61 37.71 44.69 37.88 44.76C38.37 44.96 38.85 45.03 39.32 44.98C39.35 44.98 39.37 44.96 39.4 44.96C39.41 44.96 39.43 44.96 39.45 44.97C39.46 44.98 39.47 44.99 39.48 45C39.51 45.04 39.52 45.07 39.52 45.11C39.52 45.15 39.51 45.18 39.51 45.22C39.51 45.44 39.5 45.66 39.51 45.88C39.51 46.2 39.4 46.41 39.2 46.5C38.81 46.69 38.36 46.68 37.82 46.39C37.77 46.37 37.73 46.34 37.69 46.32C37.67 46.3 37.64 46.29 37.61 46.27C37.19 46.02 36.81 45.65 36.47 45.18C36.46 45.16 36.44 45.13 36.42 45.11C36.3 44.95 36.19 44.83 36.08 44.77C36.04 44.74 36.01 44.73 35.97 44.72C35.9 44.7 35.82 44.7 35.74 44.73C35.72 44.73 35.71 44.74 35.69 44.75C35.56 44.81 35.4 44.8 35.26 44.84C35.03 44.88 34.92 44.9 34.92 44.99C34.92 45.08 35.03 45.23 35.26 45.54C35.63 46.04 36.01 46.47 36.39 46.83C36.8 47.22 37.22 47.54 37.65 47.79C37.69 47.82 37.73 47.84 37.77 47.86C38.37 48.18 38.97 48.36 39.59 48.41C40.34 48.46 40.83 48.12 41.01 47.28C41.1 46.9 41.16 46.5 41.17 46.06C41.18 45.98 41.19 45.94 41.22 45.95C41.22 45.96 41.23 45.96 41.23 45.96C41.25 45.97 41.28 46.01 41.32 46.06C41.48 46.27 41.64 46.48 41.81 46.67C41.89 46.77 41.98 46.85 42.06 46.94C42.43 47.32 42.8 47.63 43.18 47.88C43.28 47.95 43.39 48.02 43.5 48.08C43.55 48.11 43.59 48.13 43.64 48.16C43.88 48.29 44.11 48.4 44.35 48.49C44.45 48.52 44.54 48.56 44.64 48.59C45.34 48.83 45.94 48.81 46.46 48.57C46.51 48.55 46.54 48.52 46.54 48.48C46.54 48.44 46.51 48.38 46.45 48.3C46.18 47.94 45.92 47.57 45.66 47.2C45.63 47.16 45.61 47.12 45.58 47.1C45.57 47.09 45.55 47.08 45.54 47.07C45.51 47.05 45.47 47.05 45.42 47.06C45.31 47.09 45.19 47.11 45.07 47.12C44.87 47.13 44.66 47.11 44.45 47.06C44.18 47 43.91 46.88 43.63 46.72C43.58 46.7 43.54 46.67 43.49 46.64C43.35 46.55 43.21 46.45 43.06 46.34C42.54 45.95 41.85 45.09 41.81 44.34C41.8 44.24 41.8 44.16 41.8 44.11C41.8 43.95 41.86 43.98 42.12 44.13C43.59 44.98 45.06 45.84 46.53 46.7C46.72 46.81 46.78 46.78 46.78 46.59C46.78 46.58 46.78 46.56 46.78 46.55C46.78 46.46 46.78 46.37 46.78 46.29C46.78 46.08 46.79 45.87 46.79 45.66C46.79 45.62 46.79 45.57 46.79 45.53C46.76 44.55 46.46 43.54 45.83 42.52C45.8 42.47 45.77 42.41 45.73 42.36C45.22 41.6 44.53 40.93 43.83 40.46C43.72 40.39 43.62 40.32 43.51 40.26C43.44 40.22 43.37 40.19 43.3 40.15C42.88 39.94 42.47 39.8 42.11 39.78C42.07 39.78 42.03 39.78 41.99 39.78C41.75 39.77 41.5 39.78 41.24 39.87C41.24 39.74 41.24 39.63 41.24 39.53C41.24 39.42 41.24 39.33 41.25 39.24C41.25 39.24 41.25 39.23 41.25 39.22C41.25 39.11 41.21 39.04 41.13 38.99C41.12 38.99 41.12 38.98 41.11 38.98C41.11 38.98 41.1 38.97 41.09 38.97C40.98 38.91 40.87 38.85 40.76 38.79C40.54 38.66 40.33 38.54 40.11 38.41C39.57 38.1 39.57 38.1 39.56 38.7C39.56 38.75 39.56 38.79 39.55 38.88C39.3 38.5 39.07 38.17 38.82 37.88C38.61 37.64 38.38 37.43 38.14 37.24C37.98 37.12 37.82 37 37.65 36.9C37.63 36.88 37.6 36.87 37.57 36.85C37.21 36.64 36.84 36.49 36.5 36.42C36.23 36.36 35.96 36.35 35.73 36.39C35.59 36.42 35.46 36.46 35.35 36.52C35.29 36.56 35.24 36.57 35.19 36.54C35.14 36.51 35.09 36.45 35.03 36.34C34.79 35.91 34.5 35.56 34.17 35.23C33.66 34.72 33.13 34.32 32.6 33.99C32.53 33.94 32.45 33.9 32.37 33.85C32.1 33.7 31.83 33.56 31.56 33.43C30.95 33.13 30.34 32.95 29.82 33.07C29.78 33.08 29.75 33.07 29.71 33.05C29.66 33.03 29.62 32.99 29.58 32.94C29.57 32.92 29.55 32.91 29.54 32.89C28.92 32.2 28.29 31.62 27.64 31.15C27.41 30.98 27.18 30.83 26.95 30.7C26.76 30.58 26.56 30.48 26.31 30.32Z" />
									<path id="Layer" fill-rule="evenodd" class="shp1" d="M27.69 31.22C28.34 31.69 28.98 32.28 29.59 32.96C29.6 32.98 29.62 32.99 29.63 33.01C29.68 33.05 29.72 33.09 29.76 33.12C29.79 33.14 29.83 33.15 29.87 33.14C30.39 33.02 30.99 33.2 31.61 33.5C31.88 33.63 32.15 33.77 32.42 33.92C32.49 33.97 32.57 34.01 32.65 34.06C33.18 34.39 33.71 34.78 34.22 35.3C34.55 35.63 34.84 35.99 35.08 36.41C35.14 36.52 35.19 36.58 35.24 36.61C35.29 36.63 35.34 36.63 35.4 36.59C35.52 36.53 35.64 36.48 35.78 36.46C36.01 36.42 36.27 36.43 36.55 36.49C36.9 36.57 37.26 36.71 37.62 36.92C37.64 36.94 37.67 36.95 37.7 36.97C37.86 37.07 38.03 37.18 38.19 37.31C38.43 37.5 38.66 37.71 38.87 37.95C39.12 38.24 39.35 38.57 39.6 38.95C39.6 38.85 39.61 38.81 39.61 38.77C39.62 38.17 39.62 38.17 40.16 38.48C40.38 38.61 40.59 38.73 40.81 38.86C40.92 38.92 41.03 38.98 41.14 39.04C41.14 39.04 41.15 39.05 41.16 39.05C41.17 39.05 41.17 39.06 41.18 39.06C41.26 39.11 41.3 39.18 41.3 39.29C41.3 39.29 41.3 39.3 41.3 39.31C41.29 39.41 41.29 39.5 41.29 39.6C41.29 39.7 41.29 39.81 41.29 39.94C41.54 39.86 41.79 39.85 42.04 39.85C42.08 39.85 42.12 39.85 42.16 39.85C42.52 39.87 42.93 40 43.35 40.22C43.42 40.25 43.49 40.29 43.56 40.33C43.67 40.39 43.77 40.46 43.88 40.53C44.58 40.99 45.27 41.67 45.78 42.43C45.81 42.48 45.85 42.54 45.88 42.59C46.51 43.6 46.82 44.62 46.84 45.6C46.84 45.65 46.84 45.69 46.84 45.73C46.84 45.94 46.83 46.15 46.83 46.36C46.83 46.45 46.83 46.53 46.83 46.62C46.83 46.63 46.83 46.65 46.83 46.66C46.83 46.85 46.77 46.88 46.58 46.77C45.11 45.91 43.64 45.05 42.17 44.2C41.91 44.05 41.85 44.02 41.85 44.18C41.85 44.23 41.85 44.31 41.86 44.41C41.9 45.16 42.59 46.02 43.11 46.41C43.26 46.52 43.4 46.62 43.54 46.71C43.59 46.73 43.63 46.76 43.68 46.79C43.96 46.95 44.24 47.06 44.5 47.13C44.71 47.18 44.92 47.2 45.12 47.19C45.24 47.18 45.36 47.16 45.47 47.13C45.51 47.11 45.55 47.12 45.59 47.14C45.6 47.14 45.61 47.16 45.63 47.17C45.66 47.2 45.68 47.23 45.71 47.27C45.97 47.64 46.23 48.01 46.5 48.37C46.56 48.45 46.59 48.51 46.59 48.55C46.59 48.59 46.56 48.62 46.51 48.64C45.99 48.89 45.39 48.9 44.69 48.66C44.59 48.63 44.49 48.6 44.4 48.56C44.16 48.47 43.92 48.36 43.69 48.23C43.64 48.2 43.6 48.18 43.55 48.15C43.44 48.09 43.34 48.02 43.23 47.95C42.85 47.7 42.48 47.39 42.11 47.01C42.02 46.92 41.94 46.83 41.86 46.74C41.69 46.55 41.53 46.34 41.37 46.13C41.33 46.08 41.3 46.04 41.28 46.03C41.28 46.02 41.27 46.02 41.27 46.02C41.24 46.01 41.22 46.05 41.22 46.13C41.21 46.56 41.14 46.97 41.06 47.35C40.88 48.19 40.39 48.54 39.64 48.48C39.03 48.44 38.42 48.25 37.82 47.93C37.78 47.91 37.74 47.88 37.7 47.86C37.27 47.62 36.85 47.3 36.44 46.9C36.06 46.54 35.68 46.11 35.31 45.61C35.08 45.31 34.97 45.15 34.97 45.06C34.97 44.97 35.09 44.95 35.31 44.91C35.45 44.87 35.61 44.88 35.74 44.82C35.76 44.81 35.77 44.81 35.79 44.8C35.87 44.77 35.94 44.77 36.02 44.79C36.06 44.8 36.09 44.82 36.13 44.84C36.24 44.91 36.35 45.02 36.47 45.18C36.48 45.2 36.5 45.22 36.52 45.25C36.86 45.72 37.25 46.09 37.66 46.34C37.68 46.36 37.71 46.37 37.74 46.39C37.79 46.41 37.83 46.44 37.87 46.46C38.41 46.74 38.86 46.76 39.25 46.57C39.46 46.48 39.57 46.28 39.56 45.95C39.56 45.72 39.57 45.51 39.56 45.29C39.56 45.25 39.57 45.22 39.57 45.18C39.57 45.14 39.57 45.11 39.53 45.07C39.52 45.06 39.51 45.05 39.5 45.04C39.48 45.03 39.47 45.03 39.45 45.03C39.42 45.03 39.4 45.05 39.37 45.05C38.91 45.1 38.43 45.03 37.93 44.83C37.77 44.76 37.6 44.68 37.43 44.58C37.3 44.51 37.18 44.43 37.05 44.34C36.91 44.24 36.76 44.13 36.62 44.01C36.56 43.95 36.5 43.9 36.44 43.85C36.16 43.6 35.92 43.29 35.69 42.96L35.55 42.81L35.52 42.94C35.49 43.47 35.49 43.47 35.01 43.19C34.8 43.07 34.59 42.94 34.38 42.82C34.28 42.76 34.17 42.7 34.07 42.64C33.95 42.57 33.9 42.51 33.9 42.38C33.9 42.37 33.9 42.36 33.9 42.35C33.9 42.31 33.9 42.27 33.9 42.23C33.9 42.11 33.9 41.98 33.9 41.86C33.89 41.85 33.88 41.85 33.87 41.84C33.84 41.82 33.82 41.82 33.81 41.82C33.79 41.83 33.78 41.83 33.77 41.84C33.5 41.99 33.18 41.99 32.79 41.82C32.75 41.8 32.7 41.78 32.66 41.76C32.35 41.62 32.04 41.47 31.73 41.29C31.42 41.11 31.12 40.91 30.81 40.65C30.41 40.32 30.07 39.91 29.75 39.46C29.68 39.37 29.63 39.31 29.57 39.28C29.55 39.26 29.52 39.26 29.5 39.25C29.47 39.24 29.45 39.24 29.42 39.24C29.1 39.27 28.77 39.24 28.43 39.16C28.21 39.11 27.99 39.04 27.77 38.95C27.57 38.86 27.36 38.76 27.15 38.65C27.09 38.62 27.04 38.59 26.99 38.56C26.57 38.32 26.15 38.02 25.72 37.68C24.92 37.05 24.18 36.27 23.51 35.34C23.43 35.23 23.38 35.16 23.39 35.11C23.39 35.08 23.42 35.05 23.49 35.03C23.74 34.97 23.99 34.9 24.21 34.78C24.26 34.76 24.3 34.75 24.35 34.75C24.38 34.75 24.42 34.76 24.45 34.78C24.5 34.81 24.55 34.85 24.6 34.91C24.63 34.94 24.67 34.98 24.7 35.03C25.12 35.61 25.57 36.13 26.08 36.52C26.12 36.55 26.16 36.58 26.2 36.61C26.48 36.82 26.77 37.03 27.05 37.19C27.32 37.35 27.59 37.47 27.86 37.52C28.09 37.57 28.3 37.55 28.45 37.42C28.56 37.33 28.61 37.19 28.61 37.04C28.61 36.78 28.47 36.47 28.2 36.2C27.9 35.9 27.58 35.71 27.27 35.5C26.7 35.11 26.13 34.74 25.57 34.3C24.94 33.82 24.43 33.19 24.1 32.37C23.95 32.01 23.87 31.61 23.88 31.25C23.89 30.65 24.15 30.15 24.7 30.06C25.22 29.98 25.77 30.12 26.36 30.39C26.56 30.48 26.75 30.59 26.95 30.7C27.18 30.83 27.41 30.98 27.69 31.22ZM36.98 38.28C36.83 38.28 36.7 38.3 36.58 38.35C36.56 38.36 36.53 38.37 36.51 38.38C36.38 38.45 36.31 38.57 36.3 38.76C36.27 39.2 36.25 39.64 36.22 40.07C36.21 40.13 36.21 40.19 36.21 40.25C36.21 40.44 36.23 40.63 36.24 40.82C36.26 41.38 36.41 41.94 36.89 42.45C37.02 42.59 37.16 42.74 37.31 42.87C37.53 43.07 37.75 43.23 37.96 43.35C38.01 43.37 38.05 43.4 38.1 43.42C38.42 43.58 38.73 43.63 39.03 43.56C39.31 43.48 39.46 43.25 39.51 42.88C39.54 42.67 39.56 42.45 39.56 42.22C39.57 41.71 39.52 41.18 39.48 40.66C39.47 40.33 39.32 39.98 39.09 39.66C38.98 39.5 38.85 39.35 38.72 39.21C38.66 39.15 38.6 39.1 38.54 39.04C38.37 38.88 38.19 38.74 38 38.63C37.97 38.61 37.95 38.6 37.92 38.58C37.59 38.39 37.26 38.28 36.98 38.28ZM26.61 31.98C26.53 31.94 26.44 31.9 26.35 31.87C26.31 31.86 26.28 31.84 26.24 31.83C26.02 31.77 25.79 31.72 25.66 31.88C25.58 31.98 25.55 32.1 25.55 32.23C25.56 32.52 25.75 32.87 26.09 33.16C26.7 33.7 27.32 34.07 27.95 34.45C28.54 34.8 29.09 35.28 29.58 35.94C29.63 36.01 29.68 36.05 29.72 36.08C29.75 36.1 29.78 36.11 29.81 36.11C29.83 36.11 29.85 36.1 29.87 36.1C30.13 36.03 30.43 36.07 30.76 36.19C31.06 36.3 31.37 36.45 31.68 36.62C31.72 36.65 31.77 36.67 31.81 36.7C32.06 36.85 32.32 37.01 32.57 37.17C32.71 37.25 32.84 37.33 32.98 37.41C33.04 37.45 33.11 37.49 33.18 37.52C33.32 37.59 33.43 37.66 33.52 37.71C33.9 37.93 33.83 37.89 33.86 37.15C33.86 37.12 33.86 37.09 33.86 37.06C33.86 36.64 33.7 36.36 33.32 36.02C33 35.73 32.67 35.53 32.34 35.32C32.26 35.28 32.19 35.23 32.12 35.19C31.9 35.06 31.68 34.96 31.47 34.89C31.29 34.83 31.12 34.8 30.95 34.81C30.87 34.81 30.79 34.83 30.71 34.85C30.61 34.87 30.52 34.87 30.44 34.82C30.42 34.82 30.41 34.81 30.4 34.8C30.31 34.73 30.23 34.63 30.14 34.47C30.06 34.33 29.98 34.15 29.89 34.01C29.84 33.93 29.78 33.86 29.72 33.82C29.71 33.82 29.71 33.81 29.7 33.81C29.54 33.75 29.39 33.88 29.26 33.98C29.25 33.99 29.24 33.99 29.23 34C29.19 34.03 29.15 34.03 29.11 34.03C29.08 34.03 29.05 34.02 29.02 34C28.96 33.96 28.89 33.91 28.82 33.82C28.81 33.81 28.8 33.79 28.79 33.78C28.75 33.74 28.72 33.69 28.68 33.65C28.59 33.54 28.5 33.45 28.41 33.35C28.1 33.01 27.77 32.71 27.44 32.47C27.29 32.35 27.13 32.25 26.97 32.16C26.84 32.09 26.72 32.02 26.61 31.98ZM41.9 42.35C41.89 42.38 41.89 42.41 41.89 42.44C41.89 42.55 41.94 42.64 42.08 42.72C42.09 42.72 42.09 42.73 42.1 42.73C42.37 42.88 42.64 43.03 42.91 43.19C43.18 43.35 43.46 43.51 43.73 43.67C44.29 43.99 44.85 44.32 45.41 44.64C45.43 44.66 45.46 44.68 45.48 44.69C45.49 44.69 45.5 44.7 45.51 44.7C45.54 44.72 45.57 44.7 45.57 44.62C45.57 44.62 45.57 44.61 45.57 44.6C45.53 43.96 45.31 43.34 44.84 42.74C44.49 42.3 44.12 41.97 43.73 41.75C43.59 41.66 43.45 41.6 43.3 41.54C42.52 41.23 41.96 41.56 41.9 42.35ZM31.55 37.97C31.39 37.93 31.23 37.88 31.08 37.86C30.77 37.81 30.58 37.96 30.57 38.26C30.57 38.28 30.57 38.3 30.57 38.32C30.58 38.7 30.81 39.13 31.17 39.44C31.54 39.75 31.91 40.02 32.29 40.24C32.4 40.3 32.5 40.36 32.61 40.41C32.71 40.46 32.82 40.51 32.93 40.55C33.61 40.83 33.88 40.64 33.87 39.86C33.87 39.83 33.87 39.81 33.87 39.78C33.86 39.61 33.84 39.44 33.83 39.27C33.81 39.16 33.76 39.11 33.7 39.08C33.68 39.07 33.66 39.06 33.64 39.05C33 38.68 32.37 38.32 31.73 37.95C31.71 37.94 31.68 37.92 31.66 37.91C31.61 37.88 31.56 37.87 31.55 37.97Z" />
									<path id="Layer" class="shp4" d="M37.92 38.58C37.59 38.39 37.26 38.28 36.97 38.28C36.83 38.28 36.69 38.3 36.57 38.35C36.55 38.36 36.52 38.37 36.5 38.38C36.37 38.45 36.3 38.57 36.29 38.76C36.26 39.2 36.24 39.64 36.21 40.07C36.21 40.13 36.2 40.19 36.2 40.25C36.2 40.43 36.22 40.63 36.23 40.82C36.25 41.39 36.41 41.94 36.88 42.45C37.01 42.59 37.15 42.74 37.3 42.87C37.52 43.07 37.73 43.23 37.95 43.35C38 43.38 38.04 43.4 38.09 43.42C38.41 43.58 38.73 43.64 39.02 43.56C39.3 43.48 39.45 43.25 39.5 42.88C39.53 42.67 39.55 42.45 39.55 42.22C39.56 41.72 39.51 41.19 39.47 40.66C39.45 40.33 39.31 39.98 39.08 39.66C38.97 39.5 38.84 39.34 38.71 39.21C38.65 39.15 38.59 39.09 38.53 39.04C38.36 38.88 38.17 38.74 37.99 38.63C37.97 38.61 37.95 38.59 37.92 38.58Z" />
									<path id="Layer" class="shp5" d="M26.97 32.16C26.85 32.09 26.72 32.03 26.6 31.97C26.51 31.93 26.42 31.89 26.34 31.86C26.3 31.85 26.27 31.83 26.23 31.82C26.01 31.75 25.78 31.7 25.65 31.87C25.57 31.97 25.54 32.09 25.54 32.22C25.55 32.51 25.74 32.86 26.08 33.15C26.69 33.68 27.31 34.06 27.94 34.44C28.53 34.8 29.08 35.28 29.57 35.93C29.62 36 29.67 36.05 29.71 36.07C29.74 36.09 29.77 36.1 29.8 36.1C29.82 36.1 29.84 36.1 29.86 36.09C30.12 36.01 30.42 36.05 30.75 36.18C31.06 36.29 31.36 36.44 31.67 36.61C31.71 36.63 31.76 36.66 31.8 36.69C32.05 36.84 32.31 37 32.56 37.16C32.7 37.24 32.83 37.32 32.97 37.4C33.04 37.44 33.11 37.48 33.17 37.51C33.31 37.58 33.43 37.65 33.51 37.7C33.89 37.92 33.82 37.88 33.85 37.14C33.85 37.11 33.85 37.08 33.85 37.05C33.84 36.62 33.69 36.35 33.31 36.01C32.99 35.72 32.65 35.52 32.33 35.31C32.26 35.26 32.19 35.22 32.11 35.18C31.89 35.05 31.67 34.95 31.46 34.88C31.28 34.82 31.11 34.79 30.94 34.8C30.86 34.8 30.78 34.82 30.7 34.84C30.6 34.87 30.51 34.86 30.43 34.81C30.42 34.8 30.41 34.79 30.39 34.79C30.31 34.73 30.23 34.62 30.13 34.46C30.05 34.32 29.97 34.14 29.88 34C29.83 33.92 29.77 33.85 29.71 33.81C29.7 33.81 29.7 33.8 29.69 33.8C29.53 33.74 29.38 33.88 29.25 33.97C29.24 33.98 29.23 33.98 29.22 33.99C29.18 34.01 29.14 34.02 29.1 34.02C29.07 34.02 29.04 34.01 29.01 33.99C28.95 33.96 28.89 33.9 28.81 33.81C28.8 33.8 28.79 33.79 28.78 33.77C28.74 33.73 28.71 33.68 28.67 33.64C28.58 33.54 28.49 33.44 28.4 33.34C28.08 33 27.76 32.71 27.43 32.46C27.28 32.35 27.13 32.25 26.97 32.16Z" />
									<path id="Layer" class="shp6" d="M43.3 41.54C42.52 41.22 41.96 41.55 41.89 42.36C41.89 42.39 41.88 42.42 41.88 42.45C41.88 42.57 41.92 42.65 42.07 42.73C42.08 42.73 42.08 42.74 42.09 42.74C42.36 42.89 42.63 43.04 42.9 43.2C43.17 43.36 43.45 43.52 43.72 43.68C44.28 44 44.84 44.33 45.4 44.65C45.42 44.66 45.45 44.68 45.47 44.7C45.48 44.71 45.49 44.71 45.5 44.71C45.54 44.72 45.57 44.71 45.56 44.63C45.56 44.62 45.56 44.62 45.56 44.61L43.3 41.54Z" />
									<path id="Layer" class="shp6" d="M31.54 37.95C31.38 37.91 31.22 37.86 31.07 37.84C30.75 37.79 30.57 37.94 30.56 38.24C30.56 38.26 30.56 38.28 30.56 38.3C30.57 38.68 30.8 39.12 31.16 39.42C31.53 39.74 31.9 40.01 32.28 40.22C32.39 40.28 32.49 40.34 32.6 40.39C32.71 40.44 32.82 40.49 32.92 40.53C33.61 40.81 33.87 40.62 33.86 39.84C33.86 39.81 33.86 39.79 33.86 39.76C33.85 39.59 33.84 39.42 33.82 39.25C33.06 38.83 32.3 38.39 31.54 37.95Z" />
									<path id="Layer" class="shp7" d="M31.66 37.91C31.61 37.88 31.56 37.86 31.54 37.95C32.3 38.39 33.06 38.83 33.82 39.27C33.81 39.16 33.75 39.12 33.69 39.08C33.67 39.07 33.65 39.06 33.63 39.05C32.99 38.68 32.36 38.32 31.72 37.95C31.71 37.94 31.68 37.93 31.66 37.91Z" />
								</g>
							</g>
						</g>
					</g>
				</g>
			</g>
		</g>
	</g>
</svg>