<svg xmlns="http://www.w3.org/2000/svg" viewBox="0 0 78 76" width="78" height="76">
	<defs>
		<linearGradient id="grd1" gradientUnits="userSpaceOnUse"  x1="17.909" y1="38.145" x2="49.648" y2="38.145">
			<stop offset="0" stop-color="#39face"  />
			<stop offset="0" stop-color="#01c497"  />
			<stop offset="0.385" stop-color="#16d8ab"  />
			<stop offset="1" stop-color="#3fffd3"  />
		</linearGradient>
	</defs>
	<style>
		tspan { white-space:pre }
		.shp0 { fill: url(#grd1) } 
		.shp1 { fill: #ffffff } 
		.shp2 { fill: #00acee } 
	</style>
	<g id="Layer">
		<g id="Layer">
			<path id="Layer" class="shp0" d="M24.4 7.21L17.91 10.69L22.87 18.66L22.87 41.56C22.87 44.66 25.22 48.44 28.11 49.99L49.47 61.44L54.43 69.41L60.92 65.93C61.87 65.42 62.45 64.33 62.45 62.78L62.45 31.58C62.45 28.48 60.1 24.7 57.21 23.15L28.11 7.55C26.66 6.77 25.35 6.7 24.4 7.21Z" />
			<path id="Layer" class="shp1" d="M21.61 53.47L50.71 69.07C53.6 70.62 55.95 69.36 55.95 66.26L55.95 35.06C55.95 31.96 53.6 28.18 50.71 26.63L21.61 11.03C18.72 9.48 16.37 10.74 16.37 13.84L16.37 45.04C16.37 48.14 18.72 51.91 21.61 53.47Z" />
		</g>
		<g id="Layer">
			<g id="Layer">
				<g id="Layer">
					<g id="Layer">
						<g id="Layer">
							<g id="Layer">
								<g id="Layer">
									<path id="Layer" fill-rule="evenodd" class="shp2" d="M51.32 48.75C51.29 58.22 44.59 62.04 36.35 57.28C28.11 52.52 21.45 40.99 21.48 31.52C21.51 22.05 28.21 18.23 36.45 22.99C44.69 27.75 51.35 39.28 51.32 48.75ZM28.28 32.59L28.26 40.28L29.91 41.23L29.93 33.54L32.39 34.96L32.39 33.42L25.84 29.64L25.84 31.18L28.28 32.59ZM34.39 43.82L34.94 42.24L37.85 43.92L38.4 46.14L40.16 47.16L37.18 36.19L35.65 35.31L32.63 42.81L34.39 43.82ZM45.33 40.89L43.81 43.2L42.31 39.15L40.41 38.05L42.73 43.98L40.32 47.25L42.25 48.36L43.8 46.02L45.34 50.15L47.27 51.26L44.88 45.22L47.23 41.99L45.33 40.89ZM37.41 42.12L35.4 40.96L36.41 38.08L37.41 42.12Z" />
									<path id="Layer" class="shp1" d="M32.4 33.43L25.85 29.64L25.84 31.18L28.27 32.59L28.25 40.28L29.91 41.23L29.93 33.54L32.39 34.97L32.4 33.43" />
									<path id="Layer" fill-rule="evenodd" class="shp1" d="M40.16 47.17L38.4 46.15L37.85 43.93L34.94 42.25L34.39 43.83L32.63 42.81L35.65 35.31L37.18 36.19L40.16 47.17ZM37.41 42.12L36.41 38.08L35.4 40.96L37.41 42.12Z" />
									<path id="Layer" class="shp1" d="M47.23 41.99L45.33 40.89L43.81 43.2L42.31 39.15L40.41 38.05L42.73 43.98L40.32 47.24L42.25 48.36L43.8 46.01L45.34 50.14L47.27 51.25L44.88 45.22L47.23 41.99" />
								</g>
							</g>
						</g>
					</g>
				</g>
			</g>
		</g>
	</g>
</svg>