<svg xmlns="http://www.w3.org/2000/svg" viewBox="0 0 78 76" width="78" height="76">
	<defs>
		<linearGradient id="grd1" gradientUnits="userSpaceOnUse"  x1="19.084" y1="39.948" x2="49.216" y2="39.948">
			<stop offset="0" stop-color="#39face"  />
			<stop offset="0" stop-color="#01c497"  />
			<stop offset="0.385" stop-color="#16d8ab"  />
			<stop offset="1" stop-color="#3fffd3"  />
		</linearGradient>
	</defs>
	<style>
		tspan { white-space:pre }
		.shp0 { fill: url(#grd1) } 
		.shp1 { fill: #ffffff } 
		.shp2 { fill: #80cb28 } 
		.shp3 { fill: #f0511b } 
		.shp4 { fill: #fabb09 } 
		.shp5 { fill: #00acee } 
	</style>
	<g id="Layer">
		<g id="Layer">
			<path id="Layer" class="shp0" d="M25.25 10.58L19.09 13.88L23.8 21.45L23.8 43.19C23.8 46.14 26.03 49.72 28.78 51.19L49.06 62.06L53.77 69.63L59.93 66.33C60.83 65.85 61.39 64.81 61.39 63.34L61.39 33.72C61.39 30.77 59.16 27.19 56.41 25.72L28.76 10.9C27.39 10.16 26.15 10.09 25.25 10.58Z" />
			<path id="Layer" class="shp1" d="M22.6 54.49L50.23 69.3C52.98 70.77 55.21 69.58 55.21 66.63L55.21 37.01C55.21 34.06 52.98 30.48 50.23 29.01L22.6 14.2C19.85 12.73 17.62 13.92 17.62 16.87L17.62 46.49C17.63 49.44 19.85 53.02 22.6 54.49Z" />
		</g>
		<g id="Layer">
			<g id="Layer">
				<g id="Layer">
					<g id="Layer">
						<g id="Layer">
							<g id="Layer">
								<g id="Layer">
									<path id="Layer" class="shp2" d="M47.36 34.94C44.21 33.13 41.07 31.32 37.93 29.52C37.49 29.27 37.05 29.02 36.61 28.76L36.61 28.75C36.59 32.87 36.58 36.99 36.56 41.1L36.58 41.1C39.91 43.02 43.24 44.95 46.57 46.88C46.66 46.93 46.76 46.97 46.85 47.02C46.95 47.08 47.04 47.15 47.13 47.29C47.13 47.29 47.14 47.29 47.14 47.3C47.5 47.51 47.41 47.13 47.41 46.9C47.43 43.11 47.44 39.31 47.44 35.51C47.45 35.33 47.53 35.17 47.36 34.94Z" />
									<path id="Layer" class="shp3" d="M35.34 28C32.23 26.21 29.12 24.41 26.01 22.63C25.54 22.36 25.07 22.09 24.59 21.83C24.58 25.94 24.57 30.06 24.56 34.17C28.17 36.25 31.77 38.34 35.38 40.42C35.4 36.4 35.42 32.38 35.43 28.36C35.43 28.24 35.45 28.12 35.34 28Z" />
									<path id="Layer" class="shp4" d="M46.74 48.09C43.64 46.31 40.55 44.53 37.46 42.74C37.06 42.52 36.67 42.3 36.29 42.08C36.27 45.94 36.26 49.79 36.24 53.64C36.24 53.86 36.22 54.08 36.21 54.29L36.24 54.41C39.83 56.49 43.42 58.56 47 60.64C47.11 60.64 47.09 60.5 47.09 60.4C47.1 56.49 47.11 52.58 47.13 48.69C47.13 48.3 46.95 48.21 46.74 48.09Z" />
									<path id="Layer" class="shp5" d="M35 41.65C31.89 39.86 28.78 38.07 25.67 36.28C25.29 36.06 24.92 35.86 24.55 35.65C24.54 39.76 24.53 43.87 24.52 47.99C28.1 50.06 31.68 52.12 35.26 54.19C35.27 50.07 35.28 45.97 35.29 41.86C35.2 41.78 35.1 41.72 35 41.65Z" />
								</g>
							</g>
						</g>
					</g>
				</g>
			</g>
		</g>
	</g>
</svg>