<svg xmlns="http://www.w3.org/2000/svg" viewBox="0 0 78 76" width="78" height="76">
	<defs>
		<linearGradient id="grd1" gradientUnits="userSpaceOnUse"  x1="18.256" y1="38.727" x2="49.994" y2="38.727">
			<stop offset="0" stop-color="#39face"  />
			<stop offset="0" stop-color="#01c497"  />
			<stop offset="0.385" stop-color="#16d8ab"  />
			<stop offset="1" stop-color="#3fffd3"  />
		</linearGradient>
	</defs>
	<style>
		tspan { white-space:pre }
		.shp0 { fill: url(#grd1) } 
		.shp1 { fill: #ffffff } 
		.shp2 { fill: #2d9f1d } 
		.shp3 { fill: #37845d } 
		.shp4 { fill: #398959 } 
		.shp5 { fill: #fafcf9 } 
		.shp6 { fill: #fafcfa } 
	</style>
	<g id="Layer">
		<g id="Layer">
			<g id="Layer">
				<path id="Layer" class="shp0" d="M24.75 7.79L18.26 11.27L23.22 19.24L23.22 42.14C23.22 45.24 25.57 49.02 28.46 50.57L49.82 62.02L54.78 69.99L61.27 66.51C62.22 66 62.8 64.91 62.8 63.36L62.8 32.16C62.8 29.06 60.45 25.28 57.56 23.73L28.46 8.13C27.01 7.35 25.7 7.28 24.75 7.79Z" />
				<path id="Layer" class="shp1" d="M21.96 54.05L51.06 69.65C53.95 71.2 56.3 69.94 56.3 66.84L56.3 35.64C56.3 32.54 53.95 28.76 51.06 27.21L21.96 11.61C19.07 10.06 16.72 11.32 16.72 14.42L16.72 45.62C16.72 48.72 19.07 52.5 21.96 54.05Z" />
			</g>
		</g>
		<g id="Layer">
			<g id="Layer">
				<g id="Layer">
					<g id="Layer">
						<g id="Layer">
							<g id="Layer">
								<g id="Layer">
									<path id="Layer" fill-rule="evenodd" class="shp2" d="M39.67 30.27C43.93 34.25 46.49 39.2 47.5 44.77C47.51 44.88 47.51 44.98 47.52 45.09C47.56 45.91 47.61 46.73 47.61 47.53C47.61 48.15 47.58 48.75 47.51 49.33C47.46 49.69 47.33 49.99 47.32 50.38C47.31 50.44 47.32 50.49 47.32 50.55C47.24 50.57 47.22 50.64 47.22 50.73C47.22 50.78 47.23 50.84 47.23 50.89C47 51.12 46.96 51.53 46.88 51.9L46.88 51.89C46.72 51.99 46.62 52.15 46.62 52.44C46.55 52.44 46.53 52.49 46.53 52.57C46.53 52.58 46.53 52.59 46.53 52.6C46.46 52.59 46.44 52.63 46.44 52.71C46.44 52.72 46.44 52.73 46.44 52.74C46.37 52.74 46.35 52.8 46.35 52.88C46.35 52.9 46.35 52.91 46.35 52.92C45.42 54.43 44.12 55.34 42.42 55.58C42.4 55.57 42.39 55.57 42.38 55.56C42.26 55.49 42.18 55.51 42.13 55.62C42.13 55.62 42.12 55.61 42.11 55.61C42.04 55.57 41.98 55.57 41.96 55.64C41.95 55.63 41.94 55.63 41.93 55.62C41.83 55.56 41.75 55.58 41.7 55.68C41.69 55.67 41.68 55.66 41.67 55.66C41.61 55.63 41.55 55.62 41.52 55.68C41.51 55.68 41.51 55.67 41.5 55.67C41.43 55.63 41.38 55.63 41.35 55.69C41.33 55.68 41.32 55.68 41.31 55.67C41.25 55.64 41.2 55.64 41.17 55.7C41.16 55.69 41.16 55.68 41.15 55.68C41.14 55.68 41.14 55.67 41.13 55.67C41.07 55.64 41.02 55.64 40.99 55.69C40.75 55.55 40.55 55.55 40.38 55.64L40.38 55.63C40.02 55.51 39.64 55.33 39.33 55.43C39.32 55.42 39.31 55.42 39.3 55.41C39.27 55.38 39.23 55.36 39.2 55.34C39.13 55.3 39.05 55.27 38.99 55.33C38.11 54.92 37.25 54.65 36.36 54.13C36.32 54.11 36.28 54.09 36.24 54.06C35.55 53.64 34.86 53.15 34.16 52.74C32.04 51.12 30.19 49 28.6 46.46C23.61 38.5 23.34 29.53 28.09 26.87C30.4 25.58 33.06 25.79 35.97 27.47C37.17 28.16 38.41 29.1 39.67 30.27ZM36.87 32.88C36.86 32.92 36.86 32.98 36.86 33.04C36.87 34.12 36.87 35.2 36.87 36.27C36.87 37.34 36.86 38.42 36.86 39.49C36.86 40.56 36.85 41.63 36.85 42.71C36.85 43.79 36.85 44.86 36.85 45.94C36.85 46.01 36.83 46.09 36.83 46.17C36.83 46.18 36.83 46.18 36.83 46.19C36.84 46.25 36.85 46.32 36.91 46.38C36.94 46.41 36.98 46.45 37.04 46.48C37.04 46.49 37.05 46.49 37.05 46.49C37.18 46.56 37.31 46.64 37.44 46.71C37.75 46.89 38.06 47.08 38.37 47.27C38.66 47.44 38.94 47.61 39.23 47.78C39.4 47.88 39.56 47.97 39.73 48.06C40.12 48.27 40.51 48.45 40.9 48.6C43.03 49.39 44.49 48.11 44.51 45.58C44.51 45.41 44.5 45.24 44.49 45.06C44.33 42.52 42.44 39.41 40.24 38.05C40.21 38.04 40.18 38.02 40.15 38C40.07 37.95 40 37.91 39.93 37.87C39.88 37.84 39.84 37.82 39.8 37.8C39.46 37.63 39.43 37.74 39.42 38.31C39.42 38.36 39.42 38.4 39.42 38.45C39.42 38.48 39.42 38.5 39.42 38.53C39.41 39.46 39.41 39.46 40.18 39.94C41.6 40.85 42.76 42.82 42.83 44.46C42.83 44.51 42.83 44.57 42.83 44.62C42.84 46.29 41.84 47.07 40.42 46.49C40.23 46.42 40.04 46.31 39.85 46.2C39.78 46.16 39.72 46.13 39.66 46.09C39.57 46.04 39.49 45.99 39.4 45.94C39.27 45.87 39.15 45.8 39.02 45.74C38.97 45.71 38.93 45.69 38.89 45.67C38.82 45.63 38.77 45.59 38.72 45.55C38.54 45.39 38.48 45.18 38.48 44.83C38.5 43.3 38.51 41.75 38.51 40.21C38.51 38.67 38.52 37.12 38.52 35.58C38.52 34.6 38.08 33.64 37.34 32.94C37.3 32.9 37.26 32.87 37.23 32.84C37.17 32.79 37.12 32.76 37.08 32.73C36.95 32.65 36.88 32.69 36.87 32.88ZM31.63 33.19C29.45 32.32 27.93 33.64 27.93 36.19C27.93 36.27 27.93 36.36 27.93 36.44C28.03 39.02 29.83 42.17 32.07 43.65C32.28 43.79 32.44 43.9 32.57 43.97C32.58 43.98 32.6 43.98 32.61 43.99C33.02 44.21 33.02 44.01 33.02 43.17L33.02 43.07C33.02 42.32 33.02 42.32 32.37 41.91C30.87 40.97 29.73 39.09 29.59 37.34C29.58 37.24 29.58 37.14 29.58 37.04C29.59 35.57 30.52 34.79 31.84 35.22C31.9 35.24 31.96 35.26 32.02 35.29C32.21 35.36 32.39 35.46 32.58 35.57C32.84 35.72 33.11 35.89 33.37 36.04C33.5 36.11 33.6 36.17 33.68 36.21C33.76 36.25 33.81 36.29 33.85 36.33C33.92 36.41 33.92 36.51 33.92 36.76C33.92 36.82 33.92 36.88 33.92 36.95C33.92 36.96 33.92 36.98 33.92 37C33.91 40.05 33.9 43.1 33.89 46.16C33.89 47.16 34.35 48.17 35.09 48.84C35.19 48.93 35.28 49 35.35 49.04C35.38 49.05 35.41 49.06 35.43 49.07C35.54 49.09 35.59 48.99 35.59 48.71C35.58 47.63 35.58 46.55 35.58 45.48C35.58 44.41 35.59 43.33 35.59 42.26C35.59 41.67 35.59 41.09 35.59 40.5C35.59 38.94 35.6 37.37 35.6 35.81C35.6 35.77 35.61 35.73 35.61 35.69C35.62 35.55 35.62 35.41 35.42 35.28C35.41 35.27 35.4 35.27 35.39 35.26C35.39 35.25 35.38 35.25 35.38 35.25C35.25 35.18 35.13 35.11 35 35.04C34.92 35 34.85 34.95 34.77 34.91C34.54 34.78 34.32 34.64 34.09 34.5C33.77 34.31 33.44 34.11 33.12 33.92C32.61 33.63 32.11 33.36 31.63 33.19Z" />
									<path id="Layer" class="shp3" d="M47.54 45.11C47.59 45.93 47.63 46.75 47.63 47.55C47.63 48.17 47.6 48.78 47.53 49.35C47.48 49.71 47.35 50.01 47.34 50.4C47.34 50.45 47.34 50.51 47.34 50.57L47.34 50.57C47.34 50.57 47.34 50.57 47.34 50.58C47.49 50.35 47.51 50.01 47.56 49.69C47.78 48.29 47.84 46.79 47.54 45.11Z" />
									<path id="Layer" class="shp4" d="M39 55.33C38.12 54.93 37.26 54.65 36.37 54.13C36.33 54.11 36.29 54.08 36.25 54.06C35.55 53.64 34.86 53.15 34.17 52.74C34.38 53 34.62 53.12 34.85 53.27C35.36 53.62 35.86 53.94 36.37 54.24C37.25 54.75 38.13 55.15 39 55.33L39 55.33Z" />
									<path id="Layer" class="shp4" d="M40.4 55.63C40.04 55.5 39.65 55.32 39.35 55.43L39.35 55.43C39.72 55.57 40.07 55.65 40.4 55.63Z" />
									<path id="Layer" class="shp3" d="M47.26 50.91C47.03 51.14 46.98 51.55 46.91 51.92C47.09 51.65 47.2 51.31 47.26 50.91L47.26 50.91Z" />
									<path id="Layer" class="shp3" d="M46.91 51.92C46.75 52.03 46.64 52.19 46.65 52.47C46.65 52.47 46.65 52.47 46.65 52.48C46.77 52.33 46.88 52.18 46.91 51.92Z" />
									<path id="Layer" class="shp4" d="M41.01 55.68C40.77 55.54 40.57 55.54 40.4 55.63C40.63 55.73 40.83 55.73 41.01 55.68Z" />
									<path id="Layer" class="shp3" d="M47.35 50.57L47.35 50.57C47.27 50.59 47.25 50.66 47.25 50.75C47.25 50.8 47.25 50.86 47.26 50.91L47.26 50.91C47.26 50.91 47.26 50.91 47.26 50.92C47.35 50.85 47.37 50.73 47.35 50.57L47.35 50.57Z" />
									<path id="Layer" class="shp4" d="M42.41 55.58C42.29 55.51 42.21 55.53 42.16 55.64C42.28 55.7 42.37 55.67 42.45 55.61C42.43 55.6 42.42 55.59 42.41 55.58L42.41 55.58Z" />
									<path id="Layer" class="shp4" d="M41.95 55.63C41.84 55.57 41.76 55.59 41.72 55.69C41.83 55.74 41.93 55.75 41.99 55.65C41.97 55.64 41.96 55.63 41.95 55.63Z" />
									<path id="Layer" class="shp4" d="M39.21 55.34C39.13 55.29 39.06 55.27 39 55.33L39 55.33L39 55.33C39.02 55.35 39.05 55.36 39.07 55.38C39.17 55.44 39.27 55.46 39.36 55.43L39.36 55.43L39.36 55.43C39.35 55.42 39.34 55.42 39.33 55.41C39.28 55.38 39.25 55.36 39.21 55.34Z" />
									<path id="Layer" class="shp3" d="M46.64 52.47C46.57 52.47 46.55 52.52 46.55 52.6C46.55 52.61 46.55 52.62 46.55 52.63C46.55 52.63 46.55 52.63 46.56 52.63L46.56 52.63C46.63 52.62 46.65 52.56 46.64 52.47C46.64 52.48 46.64 52.48 46.64 52.47L46.64 52.47Z" />
									<path id="Layer" class="shp3" d="M46.56 52.63L46.56 52.63C46.49 52.62 46.46 52.67 46.46 52.74C46.46 52.75 46.46 52.76 46.46 52.77C46.46 52.77 46.46 52.77 46.47 52.77L46.47 52.77C46.54 52.77 46.57 52.72 46.56 52.63L46.56 52.63Z" />
									<path id="Layer" class="shp3" d="M46.47 52.78L46.47 52.78C46.39 52.78 46.37 52.84 46.37 52.92C46.37 52.93 46.37 52.94 46.37 52.96C46.43 52.92 46.48 52.88 46.47 52.78L46.47 52.78Z" />
									<path id="Layer" class="shp4" d="M42.14 55.62C42.07 55.58 42.01 55.58 41.99 55.65C42 55.66 42 55.66 42.01 55.66C42.08 55.7 42.13 55.7 42.16 55.64C42.15 55.63 42.14 55.63 42.14 55.62Z" />
									<path id="Layer" class="shp4" d="M41.69 55.67C41.63 55.63 41.57 55.63 41.54 55.69C41.54 55.69 41.54 55.69 41.55 55.69L41.55 55.69C41.56 55.69 41.56 55.7 41.57 55.7C41.64 55.74 41.69 55.74 41.73 55.69C41.71 55.68 41.7 55.67 41.69 55.67Z" />
									<path id="Layer" class="shp4" d="M41.52 55.67C41.45 55.63 41.4 55.63 41.37 55.69C41.38 55.69 41.38 55.7 41.39 55.7C41.46 55.74 41.51 55.73 41.55 55.69L41.55 55.69C41.55 55.69 41.55 55.69 41.54 55.69C41.53 55.68 41.52 55.67 41.52 55.67Z" />
									<path id="Layer" class="shp4" d="M41.33 55.66C41.27 55.63 41.22 55.63 41.19 55.69C41.2 55.69 41.2 55.7 41.21 55.7C41.28 55.74 41.33 55.73 41.36 55.68C41.35 55.68 41.34 55.67 41.33 55.66Z" />
									<path id="Layer" class="shp4" d="M41.15 55.66C41.09 55.63 41.04 55.63 41.01 55.68C41.02 55.69 41.03 55.69 41.04 55.7C41.1 55.74 41.16 55.74 41.19 55.69C41.18 55.68 41.18 55.68 41.17 55.67C41.17 55.67 41.16 55.67 41.15 55.66Z" />
									<path id="Layer" class="shp5" d="M33.12 33.92C32.62 33.63 32.11 33.36 31.62 33.16C29.44 32.29 27.92 33.61 27.92 36.16C27.92 36.24 27.92 36.33 27.92 36.41C28.02 39 29.82 42.14 32.06 43.62C32.27 43.76 32.43 43.87 32.56 43.94C32.57 43.95 32.59 43.96 32.6 43.96C33.01 44.18 33.01 43.98 33.01 43.14L33.01 43.04C33.01 42.28 33.01 42.28 32.36 41.88C30.85 40.94 29.71 39.06 29.58 37.31C29.57 37.21 29.57 37.1 29.57 37.01C29.58 35.54 30.51 34.76 31.83 35.19C31.89 35.21 31.95 35.23 32.01 35.26C32.19 35.34 32.38 35.44 32.57 35.54L32.57 35.54C32.83 35.69 33.1 35.86 33.36 36.01C33.49 36.09 33.59 36.14 33.67 36.18C33.75 36.23 33.8 36.26 33.84 36.3C33.91 36.38 33.92 36.49 33.91 36.73C33.91 36.78 33.91 36.85 33.91 36.92C33.91 36.94 33.91 36.96 33.91 36.97C33.9 40.02 33.89 43.07 33.88 46.13C33.88 47.13 34.34 48.14 35.08 48.81C35.18 48.9 35.27 48.97 35.34 49.01C35.37 49.03 35.4 49.04 35.42 49.04C35.52 49.06 35.57 48.96 35.58 48.68C35.57 47.6 35.57 46.53 35.57 45.45C35.57 44.38 35.58 43.3 35.58 42.23C35.58 41.64 35.58 41.06 35.58 40.47C35.58 38.91 35.59 37.34 35.59 35.78C35.59 35.74 35.59 35.7 35.6 35.66C35.61 35.52 35.61 35.38 35.41 35.25C35.4 35.24 35.39 35.24 35.38 35.23C35.38 35.23 35.37 35.23 35.37 35.22C35.24 35.15 35.12 35.08 34.99 35.01C34.91 34.97 34.84 34.92 34.76 34.88C34.53 34.75 34.31 34.61 34.08 34.47C33.77 34.3 33.44 34.11 33.12 33.92Z" />
									<path id="Layer" class="shp6" d="M37.08 32.73C36.95 32.66 36.88 32.7 36.86 32.89C36.85 32.94 36.85 32.99 36.85 33.05C36.86 34.13 36.86 35.21 36.86 36.28C36.86 37.35 36.85 38.42 36.85 39.5C36.85 40.57 36.84 41.65 36.84 42.72C36.84 43.79 36.84 44.87 36.84 45.95C36.84 46.02 36.82 46.1 36.82 46.18C36.82 46.19 36.82 46.19 36.82 46.2C36.82 46.26 36.84 46.33 36.9 46.39C36.93 46.42 36.97 46.46 37.03 46.49C37.03 46.49 37.04 46.49 37.04 46.5C37.17 46.57 37.3 46.64 37.43 46.72L37.43 46.72C37.74 46.9 38.05 47.09 38.37 47.28C38.66 47.45 38.94 47.63 39.23 47.79L39.23 47.79C39.4 47.89 39.56 47.98 39.73 48.07C40.12 48.28 40.51 48.47 40.9 48.61C43.03 49.4 44.5 48.12 44.51 45.59C44.51 45.42 44.51 45.25 44.49 45.07C44.32 42.53 42.44 39.42 40.24 38.06C40.21 38.04 40.18 38.02 40.15 38.01C40.07 37.96 39.99 37.91 39.93 37.88C39.88 37.85 39.84 37.83 39.8 37.81C39.46 37.64 39.43 37.76 39.42 38.32C39.42 38.36 39.42 38.41 39.42 38.46C39.42 38.48 39.42 38.51 39.42 38.54C39.42 39.47 39.42 39.47 40.18 39.95C41.6 40.85 42.76 42.82 42.83 44.47C42.83 44.53 42.83 44.58 42.83 44.63C42.84 46.3 41.85 47.08 40.42 46.5C40.23 46.42 40.04 46.32 39.85 46.21C39.79 46.17 39.72 46.14 39.66 46.1C39.57 46.05 39.49 46 39.4 45.95C39.27 45.88 39.15 45.81 39.02 45.75C38.97 45.73 38.93 45.71 38.89 45.68L38.89 45.68C38.82 45.64 38.77 45.6 38.72 45.56C38.54 45.4 38.48 45.19 38.48 44.84C38.5 43.3 38.5 41.76 38.51 40.22C38.51 38.68 38.52 37.13 38.52 35.59C38.52 34.61 38.08 33.65 37.34 32.95C37.3 32.91 37.26 32.88 37.23 32.85C37.17 32.79 37.12 32.75 37.08 32.73Z" />
								</g>
							</g>
						</g>
					</g>
				</g>
			</g>
		</g>
	</g>
</svg>